<svg preserveAspectRatio="none" width="100%" height="100%" overflow="visible" style="display: block;" viewBox="0 0 57 57" fill="none" xmlns="http://www.w3.org/2000/svg">
<g id="Mask group">
<mask id="mask0_0_14" style="mask-type:luminance" maskUnits="userSpaceOnUse" x="0" y="0" width="57" height="57">
<g id="Group">
<g id="Group_2">
<path id="Vector" d="M45.9433 16.3601C47.6956 18.8724 48.882 21.735 49.4206 24.7504H56V32.2496H49.4206C48.882 35.265 47.6956 38.1276 45.9433 40.6399L50.5976 45.2943L45.2943 50.5976L40.6399 45.9433C38.1276 47.6956 35.265 48.882 32.2496 49.4206V56H24.7504V49.4206C21.735 48.882 18.8724 47.6956 16.3601 45.9433L11.7058 50.5976L6.40237 45.2943L11.0568 40.6399C9.30442 38.1276 8.11801 35.265 7.57937 32.2496H1V24.7504H7.57937C8.11801 21.735 9.30442 18.8724 11.0568 16.3601L6.40237 11.7058L11.7058 6.40237L16.3601 11.0568C18.8724 9.30442 21.735 8.11801 24.7504 7.57937V1H32.2496V7.57937C35.265 8.11801 38.1276 9.30442 40.6399 11.0568L45.2943 6.40237L50.5976 11.7058L45.9433 16.3601Z" fill="var(--fill-0, white)" stroke="var(--stroke-0, white)" stroke-width="2" stroke-linejoin="round"/>
<path id="Vector_2" d="M28.5 35.375C30.3234 35.375 32.072 34.6507 33.3614 33.3614C34.6507 32.072 35.375 30.3234 35.375 28.5C35.375 26.6766 34.6507 24.928 33.3614 23.6386C32.072 22.3493 30.3234 21.625 28.5 21.625C26.6766 21.625 24.928 22.3493 23.6386 23.6386C22.3493 24.928 21.625 26.6766 21.625 28.5C21.625 30.3234 22.3493 32.072 23.6386 33.3614C24.928 34.6507 26.6766 35.375 28.5 35.375Z" fill="var(--fill-0, black)" stroke="var(--stroke-0, black)" stroke-width="2" stroke-linejoin="round"/>
</g>
</g>
</mask>
<g mask="url(#mask0_0_14)">
<path id="Vector_3" d="M-4.5 -4.5H61.5V61.5H-4.5V-4.5Z" fill="var(--fill-0, black)"/>
</g>
</g>
</svg>
